<svg width="40" height="40" viewBox="0 0 40 40" fill="none" xmlns="http://www.w3.org/2000/svg">
<path d="M37.5 0H1.5625C0.698242 0 0 0.698242 0 1.5625V37.5C0 38.3643 0.698242 39.0625 1.5625 39.0625H37.5C38.3643 39.0625 39.0625 38.3643 39.0625 37.5V1.5625C39.0625 0.698242 38.3643 0 37.5 0ZM32.9883 11.4014H29.8682C27.4219 11.4014 26.9482 12.5635 26.9482 14.2725V18.0371H32.7881L32.0264 23.9307H26.9482V39.0625H20.8594V23.9355H15.7666V18.0371H20.8594V13.6914C20.8594 8.64746 23.9404 5.89844 28.4424 5.89844C30.6006 5.89844 32.4512 6.05957 32.9932 6.13281V11.4014H32.9883Z" fill="white"/>
</svg>
