<svg width="30" height="25" viewBox="0 0 30 25" fill="none" xmlns="http://www.w3.org/2000/svg">
<path d="M26.6667 19.4444H3.33333C1.495 19.4444 0 20.6903 0 22.2222C0 23.7542 1.495 25 3.33333 25H26.6667C28.505 25 30 23.7542 30 22.2222C30 20.6903 28.505 19.4444 26.6667 19.4444ZM26.6667 9.72222H3.33333C1.495 9.72222 0 10.9681 0 12.5C0 14.0319 1.495 15.2778 3.33333 15.2778H26.6667C28.505 15.2778 30 14.0319 30 12.5C30 10.9681 28.505 9.72222 26.6667 9.72222ZM26.6667 0H3.33333C1.495 0 0 1.24583 0 2.77778C0 4.30972 1.495 5.55556 3.33333 5.55556H26.6667C28.505 5.55556 30 4.30972 30 2.77778C30 1.24583 28.505 0 26.6667 0Z" fill="black"/>
</svg>
