<svg width="44" height="36" viewBox="0 0 44 36" fill="none" xmlns="http://www.w3.org/2000/svg">
<path d="M43.5833 4.16667C41.9792 4.89583 40.25 5.375 38.4583 5.60417C40.2917 4.5 41.7083 2.75 42.375 0.645833C40.6458 1.6875 38.7292 2.41667 36.7083 2.83333C35.0625 1.04167 32.75 0 30.125 0C25.2292 0 21.2292 4 21.2292 8.9375C21.2292 9.64583 21.3125 10.3333 21.4583 10.9792C14.0417 10.6042 7.4375 7.04167 3.04167 1.64583C2.27083 2.95833 1.83333 4.5 1.83333 6.125C1.83333 9.22917 3.39583 11.9792 5.8125 13.5417C4.33333 13.5417 2.95833 13.125 1.75 12.5V12.5625C1.75 16.8958 4.83333 20.5208 8.91667 21.3333C7.60568 21.6921 6.22936 21.742 4.89583 21.4792C5.46168 23.2552 6.56987 24.8092 8.06462 25.9228C9.55937 27.0364 11.3655 27.6535 13.2292 27.6875C10.0701 30.1884 6.15416 31.5402 2.125 31.5208C1.41667 31.5208 0.708333 31.4792 0 31.3958C3.95833 33.9375 8.66667 35.4167 13.7083 35.4167C30.125 35.4167 39.1458 21.7917 39.1458 9.97917C39.1458 9.58333 39.1458 9.20833 39.125 8.8125C40.875 7.5625 42.375 5.97917 43.5833 4.16667Z" fill="white"/>
</svg>
